<?xml version="1.0" encoding="UTF-8"?>
<svg xmlns="http://www.w3.org/2000/svg" xmlns:xlink="http://www.w3.org/1999/xlink" width="347pt" height="182pt" viewBox="0 0 347 182" version="1.1">
<g id="surface1">
<path style=" stroke:none;fill-rule:nonzero;fill:rgb(89.411765%,19.215686%,17.254902%);fill-opacity:1;" d="M 153.15625 125.175781 C 150.070312 124.425781 149.175781 124.136719 147.386719 123.316406 C 146.265625 122.800781 145.070312 122.074219 144.734375 121.699219 C 144.140625 121.042969 144.140625 121.015625 144.738281 120.839844 C 145.078125 120.742188 146.425781 120.558594 147.730469 120.4375 C 156.652344 119.597656 163.6875 114 166.050781 105.863281 C 166.945312 102.785156 166.632812 98.878906 165.269531 96.109375 C 162.261719 89.988281 155.902344 87.027344 150.027344 89.007812 C 147.929688 89.71875 138.679688 94.160156 133.488281 96.957031 C 131.996094 97.757812 129.71875 98.984375 128.425781 99.675781 L 126.078125 100.933594 L 125.207031 100.132812 C 124.726562 99.691406 123.039062 98.359375 121.453125 97.175781 C 118.703125 95.121094 118.078125 94.554688 118.066406 94.101562 C 118.0625 93.992188 120.464844 92.28125 123.402344 90.300781 C 126.339844 88.316406 129.808594 85.960938 131.117188 85.066406 C 132.421875 84.167969 134.070312 83.128906 134.78125 82.757812 C 135.492188 82.382812 136.324219 81.804688 136.628906 81.46875 C 137.160156 80.886719 137.136719 80.875 136.222656 81.222656 C 135.695312 81.421875 134.316406 82.121094 133.15625 82.769531 C 130.648438 84.171875 129.492188 84.351562 131.640625 83 C 135.8125 80.386719 143.121094 77.730469 147.730469 77.15625 C 153.050781 76.492188 158.871094 77.367188 162.988281 79.449219 C 165.386719 80.660156 169.109375 83.132812 170.695312 84.566406 C 173.472656 87.082031 175.957031 91.023438 177.21875 94.925781 C 178.703125 99.523438 178.523438 108.429688 176.863281 112.640625 C 176.621094 113.242188 176.65625 113.265625 177.164062 112.851562 C 177.964844 112.199219 177.878906 112.613281 176.847656 114.375 C 175.578125 116.542969 171.480469 120.453125 169.046875 121.816406 C 165.027344 124.070312 161.824219 125.015625 157.625 125.1875 C 155.539062 125.273438 153.527344 125.265625 153.15625 125.175781 Z M 153.15625 125.175781 "/>
<path style=" stroke:none;fill-rule:nonzero;fill:rgb(89.411765%,19.215686%,17.254902%);fill-opacity:1;" d="M 115.007812 104.121094 C 111.699219 102.90625 106.871094 100.105469 106.871094 99.402344 C 106.871094 99.164062 107.0625 98.820312 107.296875 98.632812 C 107.851562 98.191406 113.675781 95.832031 114.214844 95.832031 C 114.886719 95.832031 122.859375 101.960938 122.722656 102.371094 C 122.453125 103.175781 120.003906 104.078125 117.78125 104.191406 C 116.535156 104.253906 115.289062 104.222656 115.007812 104.121094 Z M 115.007812 104.121094 "/>
<path style=" stroke:none;fill-rule:nonzero;fill:rgb(10.588235%,9.019608%,9.411765%);fill-opacity:1;" d="M 176.859375 112.421875 C 178.414062 107.144531 178.4375 99.199219 176.90625 94.644531 C 174.660156 87.976562 169.667969 82.734375 162.339844 79.347656 C 156.191406 76.503906 148.648438 76.410156 140.613281 79.074219 C 137.320312 80.164062 132.785156 82.277344 131.457031 83.339844 C 130.921875 83.765625 127.210938 86.050781 123.207031 88.414062 L 115.925781 92.710938 L 113.6875 90.984375 C 112.457031 90.035156 111.242188 89.074219 110.984375 88.84375 C 110.605469 88.503906 111.390625 87.980469 115.222656 86.027344 C 120.417969 83.378906 125.386719 80.304688 125.042969 79.960938 C 124.917969 79.835938 122.496094 80.90625 119.660156 82.335938 C 116.824219 83.765625 113.230469 85.46875 111.679688 86.117188 L 108.855469 87.300781 L 107.035156 85.890625 C 106.03125 85.113281 105.242188 84.449219 105.28125 84.417969 C 105.316406 84.382812 107.480469 83.742188 110.09375 82.988281 C 115.910156 81.3125 117.601562 80.632812 117.125 80.15625 C 116.882812 79.914062 114.742188 80.242188 110.296875 81.199219 C 106.734375 81.960938 103.578125 82.589844 103.289062 82.589844 C 102.996094 82.589844 101.558594 81.632812 100.097656 80.46875 C 98.632812 79.300781 96.585938 77.6875 95.542969 76.882812 C 94.5 76.078125 93.648438 75.273438 93.648438 75.097656 C 93.648438 74.921875 94.921875 74.78125 96.476562 74.78125 C 99.9375 74.78125 108.890625 73.960938 113.484375 73.226562 C 118.539062 72.414062 126.332031 70.40625 136.203125 67.371094 C 148.492188 63.589844 147.660156 63.742188 156.035156 63.746094 C 162.578125 63.746094 163.621094 63.828125 166.207031 64.527344 C 184.550781 69.5 190.945312 86.644531 181.617188 105.847656 C 179.464844 110.28125 178.175781 112.394531 177.347656 112.835938 C 176.679688 113.195312 176.640625 113.160156 176.859375 112.421875 Z M 176.859375 112.421875 "/>
<path style=" stroke:none;fill-rule:nonzero;fill:rgb(10.588235%,9.019608%,9.411765%);fill-opacity:1;" d="M 79.917969 84.085938 C 72.027344 83.027344 69.101562 81.910156 64.421875 78.148438 C 61.082031 75.464844 55.566406 70.230469 55.945312 70.105469 C 56.132812 70.042969 57.179688 70.222656 58.269531 70.503906 C 61.777344 71.414062 74.3125 73.34375 80.59375 73.9375 C 85.671875 74.417969 86.800781 74.625 87.308594 75.160156 C 87.640625 75.515625 90.082031 77.4375 92.730469 79.4375 C 98.351562 83.683594 98.503906 83.363281 90.699219 83.738281 C 88.125 83.863281 84.875 84.019531 83.476562 84.09375 C 82.078125 84.164062 80.476562 84.160156 79.917969 84.085938 Z M 79.917969 84.085938 "/>
<path style=" stroke:none;fill-rule:nonzero;fill:rgb(10.588235%,9.019608%,9.411765%);fill-opacity:1;" d="M 93.308594 91.203125 C 91.023438 90.765625 81.945312 87.40625 82.242188 87.105469 C 82.335938 87.011719 85.285156 86.796875 88.792969 86.625 C 92.300781 86.457031 96.441406 86.09375 97.988281 85.824219 L 100.804688 85.332031 L 102.828125 86.90625 C 103.964844 87.792969 104.722656 88.609375 104.558594 88.777344 C 104.398438 88.9375 103.058594 89.535156 101.585938 90.101562 C 98.953125 91.117188 95.359375 91.59375 93.308594 91.203125 Z M 93.308594 91.203125 "/>
<path style=" stroke:none;fill-rule:nonzero;fill:rgb(10.588235%,9.019608%,9.411765%);fill-opacity:1;" d="M 101.617188 96.996094 C 99.824219 96.066406 96.707031 93.972656 96.703125 93.699219 C 96.699219 93.40625 96.769531 93.382812 99.335938 92.785156 C 100.320312 92.554688 102.359375 91.855469 103.867188 91.226562 L 106.609375 90.085938 L 109.285156 92.125 C 110.753906 93.246094 111.953125 94.273438 111.949219 94.402344 C 111.941406 94.535156 110.519531 95.292969 108.789062 96.085938 C 105.332031 97.667969 103.386719 97.917969 101.617188 96.996094 Z M 101.617188 96.996094 "/>
<path style=" stroke:none;fill-rule:nonzero;fill:rgb(89.411765%,19.215686%,17.254902%);fill-opacity:1;" d="M 214.605469 54.816406 C 214.394531 53.300781 209.945312 41.96875 208.773438 39.964844 C 207.683594 38.101562 205.921875 36.582031 203.554688 35.464844 C 202.011719 34.734375 201.140625 34.558594 199.039062 34.550781 C 196.765625 34.542969 196.488281 34.476562 196.851562 34.03125 C 197.082031 33.753906 197.453125 32.761719 197.683594 31.824219 C 198.429688 28.761719 204.230469 18.109375 205.613281 17.261719 C 206.0625 16.984375 206.679688 17.152344 208.347656 18.011719 C 209.535156 18.621094 211.746094 19.375 213.261719 19.6875 C 215.953125 20.246094 216.09375 20.242188 219.339844 19.503906 C 223.242188 18.621094 228.402344 16.265625 231.589844 13.914062 C 233.96875 12.15625 234.699219 11.9375 234.699219 12.976562 C 234.699219 13.96875 232.789062 19.851562 231.410156 23.101562 C 230.753906 24.652344 230.289062 25.996094 230.378906 26.085938 C 230.472656 26.175781 231.59375 26.078125 232.878906 25.863281 C 236.347656 25.289062 246.09375 25.386719 250.285156 26.035156 C 259.699219 27.496094 268.199219 30.871094 275.300781 35.976562 C 279.164062 38.75 284.304688 43.046875 285.179688 44.234375 L 285.921875 45.238281 L 285.144531 45.238281 C 284.71875 45.238281 282.996094 44.699219 281.320312 44.039062 C 275.148438 41.605469 268.613281 40.484375 260.640625 40.484375 C 250.675781 40.484375 241.589844 42.449219 231.398438 46.808594 C 225.121094 49.492188 216.441406 54.15625 215.332031 55.4375 C 214.804688 56.042969 214.773438 56.015625 214.605469 54.816406 Z M 214.605469 54.816406 "/>
<path style=" stroke:none;fill-rule:nonzero;fill:rgb(10.588235%,9.019608%,9.411765%);fill-opacity:1;" d="M 167.734375 139.980469 C 163.015625 139.308594 155.546875 136.875 156.265625 136.25 C 156.417969 136.113281 158.472656 135.515625 160.824219 134.921875 C 165.695312 133.6875 169.359375 132.34375 172.808594 130.53125 C 185.1875 124.023438 196.09375 108.597656 198.632812 94.011719 C 199.359375 89.839844 199.101562 82.183594 198.101562 78.378906 C 196.511719 72.308594 193.449219 66.382812 189.691406 62.097656 C 186.59375 58.566406 185.554688 56.003906 185.550781 51.859375 C 185.546875 49.339844 186.5625 45.199219 187.8125 42.621094 C 189.101562 39.964844 192.164062 36.765625 194.726562 35.398438 C 196.703125 34.34375 196.964844 34.292969 199.421875 34.460938 C 204.34375 34.796875 207.578125 37.183594 209.898438 42.183594 C 212.105469 46.9375 214.730469 54.335938 214.757812 55.875 C 214.769531 56.652344 215.367188 59.050781 216.085938 61.199219 C 218.101562 67.25 218.5625 70.644531 218.582031 79.53125 C 218.601562 89.96875 217.679688 96.261719 214.875 104.824219 C 210.453125 118.332031 202.878906 127.789062 191.136719 134.457031 C 187.835938 136.335938 181.824219 138.824219 179.09375 139.441406 C 176.074219 140.128906 170.582031 140.390625 167.734375 139.980469 Z M 203.226562 44.335938 C 203.933594 43.695312 204.039062 42.511719 203.4375 41.910156 C 202.914062 41.386719 201.386719 41.386719 200.863281 41.910156 C 199.9375 42.835938 200.765625 44.898438 202.0625 44.898438 C 202.359375 44.898438 202.882812 44.644531 203.226562 44.335938 Z M 203.226562 44.335938 "/>
<path style=" stroke:none;fill-rule:nonzero;fill:rgb(10.588235%,9.019608%,9.411765%);fill-opacity:1;" d="M 201.585938 43.347656 C 201.339844 42.710938 201.941406 42.011719 202.460938 42.332031 C 203.019531 42.679688 202.902344 43.878906 202.308594 43.878906 C 202.023438 43.878906 201.699219 43.640625 201.585938 43.347656 Z M 201.585938 43.347656 "/>
<path style=" stroke:none;fill-rule:nonzero;fill:rgb(0%,0%,0%);fill-opacity:1;" d="M 85.8125 148.945312 L 84.523438 150.226562 C 83.703125 149.359375 82.75 148.925781 81.664062 148.925781 C 80.714844 148.925781 79.917969 149.242188 79.277344 149.871094 C 78.636719 150.503906 78.320312 151.269531 78.320312 152.171875 C 78.320312 153.101562 78.652344 153.894531 79.316406 154.542969 C 79.980469 155.1875 80.800781 155.511719 81.773438 155.511719 C 82.410156 155.511719 82.941406 155.378906 83.375 155.113281 C 83.8125 154.84375 84.164062 154.425781 84.429688 153.859375 L 81.636719 153.859375 L 81.636719 152.132812 L 86.488281 152.132812 L 86.5 152.539062 C 86.5 153.382812 86.285156 154.183594 85.847656 154.941406 C 85.410156 155.699219 84.84375 156.277344 84.148438 156.675781 C 83.453125 157.074219 82.636719 157.273438 81.703125 157.273438 C 80.703125 157.273438 79.808594 157.054688 79.019531 156.621094 C 78.238281 156.183594 77.617188 155.5625 77.160156 154.757812 C 76.703125 153.953125 76.476562 153.082031 76.476562 152.152344 C 76.476562 150.871094 76.898438 149.761719 77.742188 148.816406 C 78.742188 147.691406 80.046875 147.128906 81.648438 147.128906 C 82.488281 147.128906 83.273438 147.285156 84.003906 147.59375 C 84.621094 147.855469 85.222656 148.308594 85.8125 148.945312 Z M 85.8125 148.945312 "/>
<path style=" stroke:none;fill-rule:nonzero;fill:rgb(0%,0%,0%);fill-opacity:1;" d="M 91.125 147.371094 L 92.988281 147.371094 L 96.699219 157.03125 L 94.789062 157.03125 L 94.035156 155.039062 L 90.101562 155.039062 L 89.316406 157.03125 L 87.40625 157.03125 Z M 92.070312 149.929688 L 90.785156 153.246094 L 93.347656 153.246094 Z M 92.070312 149.929688 "/>
<path style=" stroke:none;fill-rule:nonzero;fill:rgb(0%,0%,0%);fill-opacity:1;" d="M 98.128906 157.03125 L 98.128906 147.371094 L 99.640625 147.371094 C 100.519531 147.371094 101.164062 147.425781 101.570312 147.542969 C 102.144531 147.695312 102.605469 147.980469 102.945312 148.394531 C 103.289062 148.8125 103.457031 149.300781 103.457031 149.867188 C 103.457031 150.234375 103.378906 150.570312 103.222656 150.871094 C 103.070312 151.167969 102.816406 151.449219 102.46875 151.710938 C 103.054688 151.988281 103.480469 152.332031 103.753906 152.75 C 104.023438 153.160156 104.160156 153.648438 104.160156 154.210938 C 104.160156 154.753906 104.019531 155.25 103.738281 155.695312 C 103.460938 156.144531 103.097656 156.476562 102.65625 156.703125 C 102.214844 156.921875 101.605469 157.03125 100.828125 157.03125 Z M 99.964844 149.125 L 99.964844 151.160156 L 100.363281 151.160156 C 100.808594 151.160156 101.140625 151.066406 101.351562 150.878906 C 101.570312 150.6875 101.679688 150.433594 101.679688 150.109375 C 101.679688 149.808594 101.578125 149.566406 101.371094 149.394531 C 101.167969 149.214844 100.855469 149.125 100.433594 149.125 Z M 99.964844 152.800781 L 99.964844 155.277344 L 100.421875 155.277344 C 101.183594 155.277344 101.695312 155.179688 101.957031 154.988281 C 102.222656 154.796875 102.355469 154.515625 102.355469 154.148438 C 102.355469 153.730469 102.199219 153.402344 101.890625 153.164062 C 101.582031 152.921875 101.066406 152.800781 100.34375 152.800781 Z M 99.964844 152.800781 "/>
<path style=" stroke:none;fill-rule:nonzero;fill:rgb(0%,0%,0%);fill-opacity:1;" d="M 105.851562 147.371094 L 107.695312 147.371094 L 107.695312 153.621094 C 107.695312 154.160156 107.738281 154.542969 107.832031 154.765625 C 107.925781 154.988281 108.082031 155.167969 108.296875 155.300781 C 108.515625 155.433594 108.777344 155.5 109.082031 155.5 C 109.40625 155.5 109.683594 155.425781 109.917969 155.277344 C 110.152344 155.128906 110.3125 154.9375 110.402344 154.710938 C 110.492188 154.480469 110.539062 154.039062 110.539062 153.390625 L 110.539062 147.371094 L 112.382812 147.371094 L 112.382812 153.128906 C 112.382812 154.101562 112.328125 154.773438 112.21875 155.152344 C 112.109375 155.527344 111.898438 155.890625 111.589844 156.242188 C 111.28125 156.59375 110.929688 156.851562 110.527344 157.023438 C 110.125 157.1875 109.65625 157.273438 109.121094 157.273438 C 108.421875 157.273438 107.8125 157.113281 107.292969 156.792969 C 106.777344 156.46875 106.410156 156.066406 106.183594 155.585938 C 105.960938 155.097656 105.851562 154.28125 105.851562 153.128906 Z M 105.851562 147.371094 "/>
<path style=" stroke:none;fill-rule:nonzero;fill:rgb(0%,0%,0%);fill-opacity:1;" d="M 114.527344 147.371094 L 116.28125 147.371094 L 120.421875 153.726562 L 120.421875 147.371094 L 122.257812 147.371094 L 122.257812 157.03125 L 120.492188 157.03125 L 116.363281 150.691406 L 116.363281 157.03125 L 114.527344 157.03125 Z M 114.527344 147.371094 "/>
<path style=" stroke:none;fill-rule:nonzero;fill:rgb(0%,0%,0%);fill-opacity:1;" d="M 133.363281 148.945312 L 132.070312 150.226562 C 131.253906 149.359375 130.300781 148.925781 129.214844 148.925781 C 128.265625 148.925781 127.46875 149.242188 126.828125 149.871094 C 126.1875 150.503906 125.867188 151.269531 125.867188 152.171875 C 125.867188 153.101562 126.199219 153.894531 126.867188 154.542969 C 127.53125 155.1875 128.347656 155.511719 129.324219 155.511719 C 129.957031 155.511719 130.492188 155.378906 130.925781 155.113281 C 131.363281 154.84375 131.714844 154.425781 131.980469 153.859375 L 129.1875 153.859375 L 129.1875 152.132812 L 134.039062 152.132812 L 134.050781 152.539062 C 134.050781 153.382812 133.832031 154.183594 133.394531 154.941406 C 132.960938 155.699219 132.394531 156.277344 131.699219 156.675781 C 131.003906 157.074219 130.1875 157.273438 129.253906 157.273438 C 128.25 157.273438 127.355469 157.054688 126.570312 156.621094 C 125.789062 156.183594 125.167969 155.5625 124.707031 154.757812 C 124.253906 153.953125 124.027344 153.082031 124.027344 152.152344 C 124.027344 150.871094 124.449219 149.761719 125.292969 148.816406 C 126.292969 147.691406 127.59375 147.128906 129.199219 147.128906 C 130.039062 147.128906 130.824219 147.285156 131.554688 147.59375 C 132.171875 147.855469 132.773438 148.308594 133.363281 148.945312 Z M 133.363281 148.945312 "/>
<path style=" stroke:none;fill-rule:nonzero;fill:rgb(0%,0%,0%);fill-opacity:1;" d="M 138.675781 147.371094 L 140.535156 147.371094 L 144.246094 157.03125 L 142.339844 157.03125 L 141.585938 155.039062 L 137.652344 155.039062 L 136.863281 157.03125 L 134.957031 157.03125 Z M 139.617188 149.929688 L 138.332031 153.246094 L 140.898438 153.246094 Z M 139.617188 149.929688 "/>
<path style=" stroke:none;fill-rule:nonzero;fill:rgb(0%,0%,0%);fill-opacity:1;" d="M 145.683594 147.371094 L 147.441406 147.371094 L 151.578125 153.726562 L 151.578125 147.371094 L 153.414062 147.371094 L 153.414062 157.03125 L 151.648438 157.03125 L 147.519531 150.691406 L 147.519531 157.03125 L 145.683594 157.03125 Z M 145.683594 147.371094 "/>
<path style=" stroke:none;fill-rule:nonzero;fill:rgb(0%,0%,0%);fill-opacity:1;" d="M 159.359375 147.371094 L 161.308594 147.371094 C 162.363281 147.371094 163.121094 147.46875 163.582031 147.667969 C 164.050781 147.859375 164.417969 148.175781 164.683594 148.613281 C 164.957031 149.046875 165.089844 149.566406 165.089844 150.175781 C 165.089844 150.847656 164.914062 151.410156 164.5625 151.855469 C 164.210938 152.300781 163.734375 152.613281 163.132812 152.789062 C 162.777344 152.886719 162.132812 152.9375 161.195312 152.9375 L 161.195312 157.03125 L 159.359375 157.03125 Z M 161.195312 151.144531 L 161.78125 151.144531 C 162.238281 151.144531 162.558594 151.113281 162.738281 151.046875 C 162.917969 150.980469 163.058594 150.875 163.15625 150.726562 C 163.261719 150.574219 163.316406 150.390625 163.316406 150.175781 C 163.316406 149.800781 163.171875 149.53125 162.882812 149.359375 C 162.671875 149.234375 162.285156 149.167969 161.714844 149.167969 L 161.195312 149.167969 Z M 161.195312 151.144531 "/>
<path style=" stroke:none;fill-rule:nonzero;fill:rgb(0%,0%,0%);fill-opacity:1;" d="M 169.832031 147.371094 L 171.695312 147.371094 L 175.40625 157.03125 L 173.496094 157.03125 L 172.742188 155.039062 L 168.808594 155.039062 L 168.023438 157.03125 L 166.113281 157.03125 Z M 170.777344 149.929688 L 169.492188 153.246094 L 172.054688 153.246094 Z M 170.777344 149.929688 "/>
<path style=" stroke:none;fill-rule:nonzero;fill:rgb(0%,0%,0%);fill-opacity:1;" d="M 176.960938 147.371094 L 178.90625 147.371094 C 179.972656 147.371094 180.730469 147.46875 181.183594 147.660156 C 181.636719 147.847656 182 148.164062 182.277344 148.605469 C 182.550781 149.046875 182.691406 149.570312 182.691406 150.175781 C 182.691406 150.808594 182.539062 151.339844 182.230469 151.769531 C 181.929688 152.195312 181.472656 152.515625 180.859375 152.734375 L 183.140625 157.03125 L 181.136719 157.03125 L 178.964844 152.9375 L 178.796875 152.9375 L 178.796875 157.03125 L 176.960938 157.03125 Z M 178.796875 151.144531 L 179.371094 151.144531 C 179.957031 151.144531 180.359375 151.070312 180.578125 150.917969 C 180.800781 150.761719 180.914062 150.507812 180.914062 150.15625 C 180.914062 149.945312 180.859375 149.761719 180.75 149.609375 C 180.640625 149.453125 180.492188 149.339844 180.308594 149.273438 C 180.125 149.203125 179.789062 149.167969 179.300781 149.167969 L 178.796875 149.167969 Z M 178.796875 151.144531 "/>
<path style=" stroke:none;fill-rule:nonzero;fill:rgb(0%,0%,0%);fill-opacity:1;" d="M 183.671875 147.371094 L 189.003906 147.371094 L 189.003906 149.183594 L 187.246094 149.183594 L 187.246094 157.03125 L 185.386719 157.03125 L 185.386719 149.183594 L 183.671875 149.183594 Z M 183.671875 147.371094 "/>
<path style=" stroke:none;fill-rule:nonzero;fill:rgb(0%,0%,0%);fill-opacity:1;" d="M 190.132812 147.371094 L 191.953125 147.371094 L 191.953125 157.03125 L 190.132812 157.03125 Z M 190.132812 147.371094 "/>
<path style=" stroke:none;fill-rule:nonzero;fill:rgb(0%,0%,0%);fill-opacity:1;" d="M 202.820312 148.683594 L 201.460938 149.886719 C 200.984375 149.21875 200.5 148.886719 200.007812 148.886719 C 199.765625 148.886719 199.570312 148.953125 199.417969 149.085938 C 199.261719 149.210938 199.1875 149.355469 199.1875 149.519531 C 199.1875 149.679688 199.242188 149.832031 199.351562 149.976562 C 199.5 150.171875 199.949219 150.582031 200.695312 151.21875 C 201.394531 151.804688 201.820312 152.175781 201.96875 152.328125 C 202.339844 152.703125 202.601562 153.066406 202.753906 153.410156 C 202.910156 153.753906 202.988281 154.128906 202.988281 154.535156 C 202.988281 155.328125 202.714844 155.980469 202.171875 156.496094 C 201.625 157.015625 200.910156 157.273438 200.03125 157.273438 C 199.347656 157.273438 198.746094 157.105469 198.234375 156.765625 C 197.730469 156.429688 197.292969 155.898438 196.929688 155.179688 L 198.472656 154.246094 C 198.9375 155.097656 199.46875 155.527344 200.070312 155.527344 C 200.386719 155.527344 200.652344 155.433594 200.867188 155.25 C 201.078125 155.066406 201.1875 154.855469 201.1875 154.613281 C 201.1875 154.394531 201.105469 154.175781 200.945312 153.957031 C 200.78125 153.738281 200.425781 153.402344 199.875 152.953125 C 198.828125 152.09375 198.148438 151.433594 197.84375 150.96875 C 197.535156 150.5 197.382812 150.035156 197.382812 149.570312 C 197.382812 148.902344 197.636719 148.328125 198.144531 147.851562 C 198.65625 147.367188 199.285156 147.128906 200.03125 147.128906 C 200.515625 147.128906 200.96875 147.238281 201.402344 147.460938 C 201.839844 147.6875 202.3125 148.09375 202.820312 148.683594 Z M 202.820312 148.683594 "/>
<path style=" stroke:none;fill-rule:nonzero;fill:rgb(0%,0%,0%);fill-opacity:1;" d="M 207.679688 147.371094 L 209.539062 147.371094 L 213.25 157.03125 L 211.34375 157.03125 L 210.589844 155.039062 L 206.65625 155.039062 L 205.867188 157.03125 L 203.960938 157.03125 Z M 208.621094 149.929688 L 207.335938 153.246094 L 209.902344 153.246094 Z M 208.621094 149.929688 "/>
<path style=" stroke:none;fill-rule:nonzero;fill:rgb(0%,0%,0%);fill-opacity:1;" d="M 214.804688 147.371094 L 216.753906 147.371094 C 217.820312 147.371094 218.578125 147.46875 219.027344 147.660156 C 219.484375 147.847656 219.847656 148.164062 220.121094 148.605469 C 220.398438 149.046875 220.535156 149.570312 220.535156 150.175781 C 220.535156 150.808594 220.382812 151.339844 220.078125 151.769531 C 219.777344 152.195312 219.320312 152.515625 218.707031 152.734375 L 220.988281 157.03125 L 218.980469 157.03125 L 216.8125 152.9375 L 216.640625 152.9375 L 216.640625 157.03125 L 214.804688 157.03125 Z M 216.640625 151.144531 L 217.21875 151.144531 C 217.804688 151.144531 218.207031 151.070312 218.425781 150.917969 C 218.648438 150.761719 218.757812 150.507812 218.757812 150.15625 C 218.757812 149.945312 218.703125 149.761719 218.59375 149.609375 C 218.484375 149.453125 218.339844 149.339844 218.15625 149.273438 C 217.972656 149.203125 217.636719 149.167969 217.144531 149.167969 L 216.640625 149.167969 Z M 216.640625 151.144531 "/>
<path style=" stroke:none;fill-rule:nonzero;fill:rgb(0%,0%,0%);fill-opacity:1;" d="M 225.40625 147.371094 L 227.269531 147.371094 L 230.980469 157.03125 L 229.074219 157.03125 L 228.320312 155.039062 L 224.386719 155.039062 L 223.597656 157.03125 L 221.691406 157.03125 Z M 226.351562 149.929688 L 225.066406 153.246094 L 227.628906 153.246094 Z M 226.351562 149.929688 "/>
<path style=" stroke:none;fill-rule:nonzero;fill:rgb(0%,0%,0%);fill-opacity:1;" d="M 231.675781 147.371094 L 233.484375 147.371094 L 234.875 153.535156 L 236.601562 147.371094 L 238.128906 147.371094 L 239.871094 153.535156 L 241.25 147.371094 L 243.058594 147.371094 L 240.886719 157.03125 L 239.125 157.03125 L 237.347656 150.785156 L 235.601562 157.03125 L 233.859375 157.03125 Z M 231.675781 147.371094 "/>
<path style=" stroke:none;fill-rule:nonzero;fill:rgb(0%,0%,0%);fill-opacity:1;" d="M 247.4375 147.371094 L 249.300781 147.371094 L 253.011719 157.03125 L 251.105469 157.03125 L 250.351562 155.039062 L 246.414062 155.039062 L 245.628906 157.03125 L 243.722656 157.03125 Z M 248.382812 149.929688 L 247.097656 153.246094 L 249.660156 153.246094 Z M 248.382812 149.929688 "/>
<path style=" stroke:none;fill-rule:nonzero;fill:rgb(0%,0%,0%);fill-opacity:1;" d="M 254.453125 147.371094 L 256.308594 147.371094 L 256.308594 150.691406 L 258.925781 147.371094 L 261.136719 147.371094 L 257.765625 151.679688 L 261.464844 157.03125 L 259.285156 157.03125 L 256.308594 152.742188 L 256.308594 157.03125 L 254.453125 157.03125 Z M 254.453125 147.371094 "/>
<path style=" stroke:none;fill-rule:nonzero;fill:rgb(0%,0%,0%);fill-opacity:1;" d="M 153.230469 163.8125 L 155.5 163.8125 C 154.722656 164.691406 154.140625 165.648438 153.753906 166.675781 C 153.375 167.703125 153.183594 168.878906 153.183594 170.203125 C 153.183594 171.632812 153.398438 172.890625 153.820312 173.976562 C 154.152344 174.8125 154.710938 175.71875 155.5 176.695312 L 153.230469 176.695312 C 152.53125 175.585938 152.042969 174.542969 151.761719 173.578125 C 151.488281 172.605469 151.347656 171.464844 151.347656 170.148438 C 151.347656 168.863281 151.496094 167.734375 151.789062 166.769531 C 152.082031 165.800781 152.5625 164.816406 153.230469 163.8125 Z M 153.230469 163.8125 "/>
<path style=" stroke:none;fill-rule:nonzero;fill:rgb(0%,0%,0%);fill-opacity:1;" d="M 165.859375 165.816406 L 164.566406 167.097656 C 163.75 166.230469 162.796875 165.796875 161.707031 165.796875 C 160.761719 165.796875 159.964844 166.113281 159.320312 166.742188 C 158.683594 167.371094 158.363281 168.136719 158.363281 169.039062 C 158.363281 169.972656 158.695312 170.761719 159.359375 171.410156 C 160.027344 172.058594 160.84375 172.382812 161.820312 172.382812 C 162.453125 172.382812 162.988281 172.25 163.417969 171.980469 C 163.855469 171.714844 164.207031 171.296875 164.476562 170.726562 L 161.683594 170.726562 L 161.683594 169 L 166.535156 169 L 166.546875 169.40625 C 166.546875 170.253906 166.328125 171.054688 165.890625 171.8125 C 165.453125 172.566406 164.886719 173.144531 164.195312 173.542969 C 163.5 173.941406 162.683594 174.140625 161.746094 174.140625 C 160.746094 174.140625 159.851562 173.925781 159.066406 173.492188 C 158.285156 173.054688 157.664062 172.433594 157.203125 171.628906 C 156.75 170.820312 156.523438 169.953125 156.523438 169.019531 C 156.523438 167.742188 156.945312 166.628906 157.789062 165.683594 C 158.789062 164.558594 160.089844 163.996094 161.695312 163.996094 C 162.535156 163.996094 163.320312 164.152344 164.050781 164.464844 C 164.664062 164.726562 165.269531 165.175781 165.859375 165.816406 Z M 165.859375 165.816406 "/>
<path style=" stroke:none;fill-rule:nonzero;fill:rgb(0%,0%,0%);fill-opacity:1;" d="M 168.226562 164.238281 L 170.171875 164.238281 C 171.226562 164.238281 171.984375 164.339844 172.449219 164.535156 C 172.917969 164.726562 173.285156 165.042969 173.550781 165.480469 C 173.820312 165.914062 173.957031 166.433594 173.957031 167.042969 C 173.957031 167.71875 173.78125 168.277344 173.425781 168.726562 C 173.074219 169.171875 172.597656 169.480469 171.996094 169.65625 C 171.640625 169.757812 170.996094 169.808594 170.0625 169.808594 L 170.0625 173.898438 L 168.226562 173.898438 Z M 170.0625 168.015625 L 170.644531 168.015625 C 171.105469 168.015625 171.421875 167.984375 171.601562 167.917969 C 171.78125 167.851562 171.921875 167.746094 172.023438 167.59375 C 172.128906 167.441406 172.179688 167.257812 172.179688 167.042969 C 172.179688 166.671875 172.035156 166.398438 171.746094 166.230469 C 171.535156 166.101562 171.148438 166.039062 170.578125 166.039062 L 170.0625 166.039062 Z M 170.0625 168.015625 "/>
<path style=" stroke:none;fill-rule:nonzero;fill:rgb(0%,0%,0%);fill-opacity:1;" d="M 180.816406 165.554688 L 179.457031 166.753906 C 178.980469 166.089844 178.496094 165.757812 178.003906 165.757812 C 177.761719 165.757812 177.566406 165.824219 177.410156 165.953125 C 177.257812 166.082031 177.183594 166.226562 177.183594 166.386719 C 177.183594 166.550781 177.238281 166.703125 177.347656 166.847656 C 177.496094 167.039062 177.941406 167.453125 178.691406 168.085938 C 179.390625 168.675781 179.8125 169.042969 179.960938 169.199219 C 180.335938 169.574219 180.597656 169.933594 180.75 170.28125 C 180.90625 170.621094 180.984375 170.996094 180.984375 171.402344 C 180.984375 172.195312 180.710938 172.851562 180.164062 173.367188 C 179.621094 173.882812 178.90625 174.140625 178.027344 174.140625 C 177.34375 174.140625 176.742188 173.972656 176.230469 173.636719 C 175.726562 173.300781 175.289062 172.769531 174.925781 172.046875 L 176.46875 171.113281 C 176.929688 171.96875 177.464844 172.394531 178.066406 172.394531 C 178.382812 172.394531 178.648438 172.304688 178.859375 172.121094 C 179.074219 171.9375 179.183594 171.722656 179.183594 171.484375 C 179.183594 171.265625 179.101562 171.042969 178.941406 170.824219 C 178.777344 170.605469 178.421875 170.273438 177.871094 169.820312 C 176.820312 168.964844 176.144531 168.300781 175.839844 167.839844 C 175.53125 167.371094 175.378906 166.902344 175.378906 166.441406 C 175.378906 165.769531 175.632812 165.195312 176.140625 164.71875 C 176.652344 164.238281 177.28125 163.996094 178.027344 163.996094 C 178.507812 163.996094 178.964844 164.109375 179.398438 164.332031 C 179.835938 164.554688 180.308594 164.960938 180.816406 165.554688 Z M 180.816406 165.554688 "/>
<path style=" stroke:none;fill-rule:nonzero;fill:rgb(0%,0%,0%);fill-opacity:1;" d="M 184.25 176.695312 L 181.980469 176.695312 C 182.761719 175.816406 183.339844 174.863281 183.71875 173.839844 C 184.105469 172.8125 184.296875 171.632812 184.296875 170.308594 C 184.296875 168.875 184.085938 167.621094 183.660156 166.539062 C 183.328125 165.703125 182.769531 164.792969 181.980469 163.8125 L 184.25 163.8125 C 184.949219 164.925781 185.4375 165.96875 185.710938 166.9375 C 185.992188 167.90625 186.132812 169.046875 186.132812 170.359375 C 186.132812 171.648438 185.984375 172.773438 185.691406 173.742188 C 185.398438 174.707031 184.917969 175.695312 184.25 176.695312 Z M 184.25 176.695312 "/>
</g>
</svg>
