<?xml version="1.0" encoding="utf-8"?>
<!DOCTYPE svg PUBLIC "-//W3C//DTD SVG 1.1//EN" "http://www.w3.org/Graphics/SVG/1.1/DTD/svg11.dtd">
<svg version="1.1" id="Pakatan_Harapan_logo" xmlns="http://www.w3.org/2000/svg" xmlns:xlink="http://www.w3.org/1999/xlink"
	 x="0px" y="0px" width="1000px" height="500px" viewBox="0 0 1000 500" enable-background="new 0 0 1000 500" xml:space="preserve"
	>
<path id="Field" fill="#D7282F" d="M0,500h1000V0H0V500z"/>
<g id="Harapan">
	<path id="H" fill="#FFFFFF" d="M141.747,266.705v-47.627h14.725v118.126h-14.725v-56.712H85.505v56.712H70.776V219.078h14.729
		v47.627H141.747z"/>
	<path id="A1" fill="#FFFFFF" d="M247.319,246.058l-21.013,47.933h42.028L247.319,246.058z M220.187,307.506l-13.485,29.698h-15.839
		l56.456-123.516l56.458,123.516h-15.839l-13.485-29.698H220.187z"/>
	<path id="R" fill="#FFFFFF" d="M354.652,275.079h4.738c15.164,0,31.59-2.827,31.59-21.667c0-18.53-17.693-21.197-32.38-21.197
		h-3.948V275.079z M413.881,337.413h-18.006l-35.062-50.086h-6.162v50.086h-14.847V219.024h18.005
		c10.583,0,21.955,0.156,31.431,5.497c9.953,5.81,15.638,16.957,15.638,28.263c0,16.958-11.373,31.087-28.589,33.127
		L413.881,337.413z"/>
	<path id="A-rrowhead" fill="#FFFFFF" d="M428.709,356.37l70.314-157.141l70.314,156.826l-70.314-46.323
		c0,0-69.979,46.369-70.047,46.323"/>
	<path id="P" fill="#FFFFFF" d="M615.363,274.682h4.715c15.092,0,31.443-2.831,31.443-21.695c0-18.551-17.605-20.751-32.229-20.751
		h-3.93V274.682z M615.363,337.559H600.59V219.032h16.975c36.471,0,47.789,12.577,47.789,34.27
		c0,24.993-19.021,34.581-41.502,34.581h-8.488V337.559z"/>
	<path id="A2" fill="#FFFFFF" d="M735.084,246.267L714.068,294.2h42.027L735.084,246.267z M707.953,307.715l-13.488,29.698h-15.84
		l56.459-123.519l56.455,123.519h-15.838l-13.486-29.698H707.953z"/>
	<path id="N" fill="#FFFFFF" d="M826.285,213.31l88.279,93.264v-87.603h14.66v123.462l-88.279-93.264v88.389h-14.66V213.31z"/>
</g>
<g id="Pakatan">
	<path id="P_1_" fill="#FFFFFF" d="M77.395,167.928h1.862c5.951,0,12.395-1.114,12.395-8.552c0-7.316-6.939-8.183-12.704-8.183
		h-1.553V167.928z M77.395,192.723H71.57v-46.735h6.695c14.378,0,18.841,4.959,18.841,13.511c0,9.856-7.5,13.636-16.362,13.636
		h-3.35V192.723z"/>
	<path id="A1_1_" fill="#FFFFFF" d="M217.895,156.652l-8.274,19.065h16.548L217.895,156.652z M207.213,181.092l-5.31,11.814h-6.237
		l22.229-49.131l22.229,49.131h-6.237l-5.311-11.814H207.213z"/>
	<path id="K" fill="#FFFFFF" d="M368.015,146.014h7.63l-21.031,21.029l21.405,25.748h-7.882l-17.617-21.777l-2.357,2.236v19.541
		h-5.833v-46.777h5.833V166.3L368.015,146.014z"/>
	<path id="A2_1_" fill="#FFFFFF" d="M495.144,156.847l-8.274,19.065h16.544L495.144,156.847z M484.462,181.291l-5.31,11.813h-6.237
		l22.229-49.13l22.225,49.13h-6.234l-5.309-11.813H484.462z"/>
	<path id="T" fill="#FFFFFF" d="M632.307,192.439h-5.781v-41.07H615.52v-5.291h27.791v5.291h-11.004V192.439z"/>
	<path id="A3" fill="#FFFFFF" d="M763.539,156.668l-8.273,19.064h16.547L763.539,156.668z M752.857,181.107l-5.311,11.813h-6.236
		l22.229-49.13l22.229,49.13h-6.236l-5.311-11.813H752.857z"/>
	<path id="N_1_" fill="#FFFFFF" d="M887.502,143.592l35.1,36.771v-34.54h5.828v48.681l-35.1-36.775v34.854h-5.828V143.592z"/>
</g>
</svg>
